<svg version="1.1" id="Layer_1" xmlns="http://www.w3.org/2000/svg" xmlns:xlink="http://www.w3.org/1999/xlink" x="0px" y="0px"
	 width="100%" viewBox="0 0 768 768" enable-background="new 0 0 768 768" xml:space="preserve">
<path fill="#FEFEFE" opacity="1.000000" stroke="none" 
	d="
M1.000000,640.000000 
	C1.000000,427.044373 1.000000,214.088715 1.000000,1.066539 
	C256.902313,1.066539 512.804626,1.066539 769.000000,1.066539 
	C769.000000,213.691483 769.000000,426.383087 768.629761,639.565552 
	C763.802917,638.707520 759.346252,637.358582 754.570068,635.912964 
	C754.323120,637.633484 754.082581,638.569336 754.071289,639.507935 
	C753.993347,645.958069 754.314880,652.435730 753.821228,658.851746 
	C753.306946,665.535095 752.021057,672.159058 750.650330,678.739502 
	C748.811951,678.763306 747.395813,678.856750 745.656006,678.846191 
	C744.891663,678.817444 744.450928,678.892700 743.754578,678.886353 
	C743.326965,678.854126 743.154968,678.903442 742.527039,678.841553 
	C735.717468,678.808899 729.363892,678.887451 722.754578,678.888367 
	C722.329773,678.867004 722.160706,678.923279 721.614502,678.862915 
	C717.455078,678.651855 719.287354,675.969055 719.419006,674.393738 
	C720.206482,664.972229 721.365662,655.577820 721.970886,646.146790 
	C722.245056,641.874634 719.717163,638.856934 715.453247,637.883179 
	C712.165833,637.132507 708.779480,636.815247 706.168701,636.416870 
	C705.324463,649.866394 704.586792,662.623108 703.642456,675.364563 
	C703.526550,676.928528 702.709106,679.172180 701.526611,679.799011 
	C696.367371,682.533997 695.322571,686.708191 696.117737,691.729370 
	C698.061584,692.134705 699.773438,692.491699 701.339844,693.215332 
	C700.500000,699.792297 699.748413,705.997009 699.124268,712.214417 
	C698.106323,722.355469 703.043579,730.008850 711.845581,732.023254 
	C714.361877,732.599060 716.442871,732.602661 714.958496,728.745667 
	C714.960144,728.316101 714.904480,728.147095 714.878906,727.711548 
	C714.619629,727.250183 714.330261,727.055237 714.023438,726.632385 
	C714.005981,726.404419 713.848633,725.975159 713.919556,725.567017 
	C713.955322,723.781555 713.920227,722.404175 713.962219,720.589050 
	C714.067017,717.785522 714.094788,715.419678 714.469971,712.844360 
	C715.079407,708.760559 715.341431,704.886353 715.765015,700.608337 
	C716.648438,696.610474 717.370300,693.016357 718.531982,689.484985 
	C727.974365,689.337891 736.976868,689.128113 746.465027,688.942993 
	C747.902283,688.756897 748.854004,688.546143 750.205750,688.246826 
	C749.394409,696.580078 748.319397,704.631775 747.891113,712.717712 
	C747.242004,724.970703 751.555237,730.107727 764.339417,732.730713 
	C761.604797,717.958435 764.162720,703.516602 766.047302,689.065125 
	C766.622192,684.656677 767.993469,680.352112 769.000000,676.000000 
	C769.000000,706.986633 769.000000,737.973267 769.000000,768.979980 
	C513.123718,768.979980 257.247467,768.979980 1.000000,768.979980 
	C1.000000,727.309143 1.000000,685.617249 1.371105,643.472290 
	C3.803074,648.787842 6.439531,654.422180 7.820879,660.349060 
	C12.684630,681.217957 17.107279,702.189453 21.718832,723.117310 
	C23.584114,731.582214 24.626640,732.374939 33.115276,730.669250 
	C35.279613,730.234375 38.317169,729.153198 39.079983,727.502991 
	C47.239841,709.849915 55.179863,692.089966 62.842758,674.214661 
	C66.632195,665.375000 69.814888,656.268982 73.083366,647.215271 
	C74.565186,643.110657 72.873863,639.950867 68.984306,638.265869 
	C66.345573,637.122742 63.478634,636.506348 60.858616,635.699097 
	C55.135494,662.550598 45.590115,687.326538 34.667614,712.959717 
	C30.426397,691.611389 26.620981,671.704651 22.481995,651.867554 
	C19.329741,636.759583 15.544779,634.817932 1.000000,640.000000 
M460.933441,71.864838 
	C437.562775,48.427551 414.192108,24.990259 390.522369,1.253023 
	C379.965973,11.878510 369.766296,22.137602 359.574860,32.404854 
	C346.344391,45.733700 333.120453,59.069038 319.296173,72.770012 
	C318.744171,73.288406 318.192169,73.806801 317.094757,74.837387 
	C366.190216,74.837387 414.495483,74.837387 463.772766,74.837387 
	C462.482300,73.689728 461.797699,73.080887 460.933441,71.864838 
M233.242645,158.711365 
	C232.676422,159.346909 232.110199,159.982452 231.300720,160.891052 
	C232.373291,160.982544 232.868942,161.061859 233.364609,161.061874 
	C337.331879,161.067978 441.299164,161.069351 545.266418,161.058151 
	C546.399597,161.058029 547.532715,160.891266 548.665894,160.802292 
	C548.569214,160.438721 548.472473,160.075165 548.131287,159.082108 
	C537.598572,148.484451 527.100403,137.852173 516.522705,127.299583 
	C507.380951,118.179543 498.148865,109.150055 488.106750,99.669823 
	C423.721130,99.654427 359.335510,99.637230 294.949890,99.640511 
	C293.976135,99.640564 293.002411,99.894295 291.356995,100.132492 
	C278.149353,113.380074 264.910950,126.597176 251.747833,139.888840 
	C245.719711,145.975830 239.839722,152.209534 233.242645,158.711365 
M134.106979,257.209045 
	C133.386124,261.246155 136.600388,259.165619 137.705383,259.166321 
	C306.180023,259.274200 474.654694,259.267334 643.129395,259.250580 
	C644.495911,259.250458 645.862427,259.049774 647.984863,258.883514 
	C646.834717,257.865326 646.370911,257.454742 645.701599,256.410431 
	C626.495300,237.332932 607.319031,218.225021 588.060608,199.200302 
	C583.510010,194.704971 578.683044,190.489395 573.053894,186.010452 
	C452.232391,186.008942 331.410889,186.003540 210.589401,186.044815 
	C208.875488,186.045395 207.161789,186.630432 204.852859,187.146317 
	C203.066223,188.890533 201.263733,190.618851 199.495346,192.381378 
	C177.930664,213.874603 156.371002,235.372864 134.106979,257.209045 
M337.090973,512.326050 
	C339.060669,522.285278 341.205383,532.214539 342.916382,542.218018 
	C343.629120,546.385010 345.992462,548.262085 349.669586,547.944763 
	C359.418243,547.103577 369.153198,545.991150 378.832825,544.572144 
	C380.470795,544.332092 382.458893,542.315674 383.185181,540.642456 
	C395.308868,512.713501 407.203400,484.685181 419.274658,456.733276 
	C423.349457,447.297821 427.773010,438.013000 432.554962,427.523560 
	C433.180725,430.291779 433.602478,431.816284 433.864807,433.367767 
	C439.939728,469.301056 446.060211,505.226959 451.981049,541.185669 
	C452.747894,545.842957 454.983521,548.336731 459.483856,547.943298 
	C469.071136,547.104980 478.651489,546.044495 488.161530,544.594849 
	C489.923676,544.326233 491.956482,542.090881 492.811066,540.269104 
	C496.202698,533.038696 499.090881,525.574463 502.319336,518.264709 
	C521.939697,473.841034 541.998779,429.605347 561.072388,384.948517 
	C569.744019,364.645416 576.627686,343.569031 584.032776,322.740448 
	C586.268616,316.451416 585.857727,310.093201 580.290283,305.306335 
	C572.175354,298.329102 562.243591,295.892822 552.442505,293.947327 
	C536.510864,364.394470 509.288818,430.400787 484.512329,497.375153 
	C482.614227,489.995911 481.670258,482.773102 480.690887,475.555115 
	C475.119110,434.492615 469.903259,393.376617 463.759186,352.399841 
	C461.674774,338.498444 457.556915,324.860260 453.735016,311.279968 
	C452.010345,305.151672 447.728851,300.599670 440.924316,299.207886 
	C427.608582,296.484344 415.747253,300.605896 403.915833,306.479492 
	C412.315857,323.257721 416.769897,340.845856 420.367340,358.627167 
	C421.869080,366.049774 424.834412,373.211548 421.585419,381.464966 
	C409.584229,411.951660 398.406769,442.761505 386.693512,473.363281 
	C383.512360,481.674225 379.536743,489.681061 375.333130,499.164490 
	C374.546692,496.547058 374.085663,495.514282 373.934998,494.438080 
	C369.967163,466.095947 365.963654,437.758423 362.145905,409.395935 
	C361.360413,403.560394 360.039398,397.788666 363.044586,391.818390 
	C367.452911,383.060699 371.432892,374.029083 374.818024,364.828186 
	C380.036652,350.643646 384.777313,336.274017 389.336212,321.861267 
	C390.877136,316.989777 390.434357,311.738403 386.902954,307.621735 
	C378.612854,297.957794 366.969025,296.156281 355.541229,293.835022 
	C353.673462,303.484039 351.972260,312.272491 350.271057,321.060944 
	C349.633514,321.071533 348.995941,321.082153 348.358398,321.092773 
	C347.195740,318.083435 346.095947,315.047913 344.856171,312.070740 
	C342.843536,307.237640 340.539948,302.344299 335.273895,300.471649 
	C320.779449,295.317291 307.726257,299.978119 294.944977,306.272339 
	C297.780640,313.466400 301.160583,319.751099 302.741730,326.459747 
	C308.729065,351.863708 314.306305,377.369293 319.598602,402.927643 
	C320.567291,407.605835 320.765625,413.183899 319.143066,417.534882 
	C310.424774,440.912933 301.050568,464.047211 291.816406,487.231201 
	C290.372589,490.856201 288.484924,494.304474 286.802521,497.834442 
	C286.352203,497.802124 285.901917,497.769775 285.451630,497.737457 
	C284.334106,491.606476 283.277618,485.463654 282.089264,479.346436 
	C273.396606,434.599976 264.974182,389.797546 255.773361,345.155579 
	C253.243561,332.881073 248.679306,320.976868 244.407761,309.133850 
	C242.647797,304.254333 238.725464,300.501495 233.191284,299.308624 
	C219.759811,296.413513 207.611496,300.065552 195.871628,306.311401 
	C198.759827,312.713013 202.171890,318.528656 204.069214,324.802368 
	C210.224457,345.155518 216.502029,365.513580 221.473511,386.172668 
	C228.284317,414.475128 233.918427,443.060242 240.099838,471.514893 
	C245.044144,494.274841 250.095963,517.011536 255.000031,539.780090 
	C256.131409,545.032837 258.888702,548.500610 264.449768,547.998352 
	C274.198425,547.118042 283.916595,545.821594 293.599457,544.377380 
	C295.009003,544.167175 296.711914,542.418640 297.335266,540.974548 
	C305.114166,522.953613 312.668091,504.835815 320.395416,486.792328 
	C323.070221,480.546570 326.064423,474.437561 328.912720,468.266083 
	C329.347443,468.394104 329.782196,468.522125 330.216919,468.650177 
	C332.472046,482.921539 334.727142,497.192902 337.090973,512.326050 
M271.380524,652.801758 
	C262.455902,672.124634 253.550262,691.456299 244.556152,710.746765 
	C244.055328,711.820923 242.962906,713.088745 241.909790,713.364197 
	C229.460159,716.621460 216.774948,717.306641 203.462769,716.937012 
	C204.227264,709.145996 204.812698,701.860352 205.680954,694.608643 
	C207.439407,679.921570 209.867538,665.293579 211.030731,650.563232 
	C211.908829,639.443115 206.020416,635.197632 195.860626,637.059692 
	C194.299561,653.750000 192.820023,670.120605 191.218903,686.479370 
	C190.263596,696.239624 188.845016,705.963562 188.215164,715.741272 
	C188.013596,718.870117 187.708450,721.234558 185.411713,723.580566 
	C183.640488,725.389709 182.752563,728.063660 181.822098,729.727051 
	C193.569214,729.727051 204.812027,729.544678 216.045593,729.788330 
	C224.128815,729.963562 232.645233,733.859070 238.991928,726.658936 
	C242.808823,728.958984 246.297394,731.061218 250.070190,733.334717 
	C253.849030,722.542847 257.395386,712.414917 260.859100,702.523071 
	C270.837341,701.869080 280.231781,701.253357 289.805389,700.625854 
	C291.516510,707.578918 293.194885,715.391296 295.394226,723.054138 
	C297.554260,730.579712 302.061066,732.671692 309.576050,730.191467 
	C311.569153,729.533630 313.500763,728.689453 314.504517,728.300903 
	C311.541046,719.070435 308.270020,710.534607 306.085297,701.729187 
	C301.688873,684.010132 298.232025,666.055359 293.713257,648.370056 
	C290.705963,636.600281 282.843903,633.199036 270.575531,637.586304 
	C276.136749,641.225281 274.789185,645.658813 272.347778,650.216675 
	C272.037231,650.796387 271.890198,651.463806 271.380524,652.801758 
M422.835785,654.767517 
	C422.274078,652.339478 421.525513,649.937561 421.182526,647.479004 
	C419.575134,635.956543 410.302002,635.040222 400.885620,641.064575 
	C401.156799,641.628784 401.513916,642.188782 401.706970,642.800598 
	C405.057098,653.416260 410.335999,663.591614 405.066956,675.388672 
	C399.803497,687.173218 395.603394,699.432678 390.937134,711.483948 
	C390.514526,711.415283 390.091919,711.346619 389.669281,711.277954 
	C389.316254,709.066895 388.972015,706.854370 388.608765,704.645020 
	C387.085083,695.378296 385.447235,686.128723 384.057556,676.841980 
	C382.538269,666.689148 381.681915,656.417480 379.720764,646.356567 
	C378.093933,638.010742 374.238403,636.110718 365.872925,638.130249 
	C363.830383,638.623413 361.893005,639.552124 360.979187,639.887329 
	C363.723938,652.450317 366.641266,664.364502 368.881622,676.404602 
	C372.013245,693.234558 374.616730,710.162415 377.526215,727.034607 
	C377.759491,728.387390 378.255676,730.262756 379.239075,730.820007 
	C383.493317,733.230896 392.263000,729.823608 394.160431,725.320068 
	C396.226654,720.415649 398.255554,715.494263 400.407654,710.627625 
	C403.853851,702.834473 407.388092,695.080261 411.455963,686.041077 
	C413.853851,700.268433 415.912811,713.003662 418.226135,725.692566 
	C418.605865,727.775330 417.872772,731.486023 421.826019,731.040039 
	C426.281036,730.537537 431.840179,732.734924 434.543335,727.017944 
	C437.528320,720.704895 440.301178,714.287598 443.027222,707.856750 
	C451.136780,688.726074 459.359894,669.640076 467.160217,650.383423 
	C470.469604,642.213562 468.705231,639.403931 460.298645,636.805908 
	C459.065399,636.424805 457.788330,636.185303 456.651337,635.909363 
	C454.175812,644.569458 451.963715,653.062744 449.301270,661.412476 
	C446.577728,669.953613 443.452393,678.368164 440.429749,686.812012 
	C437.525909,694.923889 434.528290,703.002136 431.571899,711.095215 
	C431.148102,711.018494 430.724304,710.941772 430.300507,710.865051 
	C427.862396,692.448242 425.424286,674.031372 422.835785,654.767517 
M631.184204,683.007446 
	C632.942444,676.104309 634.090149,668.967102 636.623657,662.361267 
	C639.381165,655.171204 643.759094,648.680115 651.415588,645.614624 
	C660.257324,642.074402 666.843872,646.306030 666.231689,655.712646 
	C665.823364,661.986877 663.702637,668.149658 662.306458,674.554138 
	C666.483154,676.902222 673.354309,675.746643 677.573181,671.585938 
	C687.811768,661.488647 683.820435,642.143494 670.081665,637.867126 
	C664.403503,636.099792 657.879150,635.844238 651.906311,636.476013 
	C638.549744,637.888794 628.254761,644.833984 621.291138,656.412354 
	C612.531555,670.976868 611.237976,686.807251 613.744202,703.185120 
	C616.043518,718.211182 627.678040,733.303101 649.392761,731.064575 
	C662.493591,729.714111 671.961182,722.778870 678.443787,711.637817 
	C679.102722,710.505432 677.915039,708.298523 677.584290,706.590210 
	C676.112488,707.057373 674.391113,707.185364 673.213135,708.051941 
	C668.691650,711.378235 664.711365,715.612610 659.851990,718.269714 
	C651.041016,723.087708 641.570740,719.982666 636.082581,711.417053 
	C630.641174,702.924561 630.815002,693.441223 631.184204,683.007446 
M476.168152,702.610657 
	C473.536346,708.354370 470.931396,714.110596 468.264008,719.837708 
	C466.222015,724.221985 467.280396,727.630127 471.472107,729.935425 
	C473.572327,731.090393 475.848328,731.925720 477.907837,732.844543 
	C481.165802,723.587219 484.333069,714.929871 487.228180,706.182373 
	C488.293121,702.964600 490.076233,702.040283 493.394043,701.976746 
	C501.434021,701.822876 509.464142,701.153320 517.527222,700.689941 
	C519.198975,707.633118 520.803345,715.120300 522.832275,722.490662 
	C524.859619,729.855225 529.024780,732.407898 535.719543,730.695801 
	C538.250488,730.048523 540.650818,728.890869 542.051575,728.364136 
	C538.946472,718.147095 535.552551,708.465149 533.097229,698.550781 
	C529.462646,683.874390 526.587402,669.011475 523.178528,654.276611 
	C522.286743,650.421814 520.886108,646.624451 519.242004,643.018311 
	C516.905090,637.892700 513.045471,636.170715 507.371765,636.720459 
	C504.551422,636.993652 501.682739,636.767944 498.835938,636.767944 
	C503.507751,641.227234 502.283173,645.395935 500.291046,649.753540 
	C492.343262,667.138916 484.449585,684.549011 476.168152,702.610657 
M584.410828,675.991333 
	C585.384094,668.774292 586.357422,661.557312 587.360291,654.120850 
	C599.316040,652.946594 612.690247,654.279419 614.514587,636.975342 
	C613.223755,637.160767 612.114624,637.286865 611.018005,637.482971 
	C600.902893,639.290955 590.811218,641.390259 580.449646,640.867554 
	C570.845093,640.383118 561.241394,639.838562 551.651611,639.127930 
	C548.703491,638.909485 547.150940,639.851685 547.020386,642.795471 
	C546.931946,644.789062 546.865906,646.802063 547.037842,648.784851 
	C547.398804,652.946411 549.105835,655.557373 553.961731,655.301086 
	C559.401917,655.014038 564.868896,655.235168 570.640076,655.235168 
	C570.411011,658.714233 570.345703,661.873901 569.973145,664.996826 
	C568.142151,680.344238 566.348694,695.697876 564.307922,711.018127 
	C562.672363,723.296082 569.054199,731.671265 580.049194,732.274048 
	C580.049194,726.047424 579.603333,719.744446 580.143677,713.527222 
	C581.208374,701.277893 582.820007,689.076172 584.410828,675.991333 
M168.059357,730.012573 
	C175.257919,729.243164 180.565338,722.083984 179.922516,714.503845 
	C166.819412,715.560791 153.711563,716.618103 139.880981,717.733765 
	C140.486923,711.287415 140.933487,706.039185 141.481155,700.801514 
	C143.309875,683.312317 145.389969,665.845947 146.928207,648.331604 
	C147.618942,640.467041 145.583694,638.495361 137.711823,637.105164 
	C135.630569,636.737549 133.492538,636.691406 131.169907,636.478333 
	C131.074493,637.349243 130.973541,637.978638 130.940933,638.611572 
	C130.300171,651.052246 129.987656,663.520203 128.944519,675.926819 
	C127.859863,688.827087 125.854469,701.649231 124.726807,714.547058 
	C124.405533,718.221802 124.772980,721.515076 121.340202,724.128052 
	C119.932533,725.199524 119.557007,727.626892 118.870682,729.097412 
	C127.375221,729.097412 135.315399,728.979919 143.250488,729.130371 
	C151.218658,729.281311 159.181778,729.699158 168.059357,730.012573 
M102.966690,685.496704 
	C103.134575,684.180786 103.328453,682.867493 103.466263,681.548462 
	C104.677399,669.955383 106.018181,658.373230 107.015472,646.761658 
	C107.427467,641.964844 104.725403,638.866211 100.045494,637.831970 
	C96.891487,637.135010 93.653778,636.816711 91.724136,636.522644 
	C90.171997,653.317688 88.725449,669.490479 87.166145,685.652466 
	C86.192947,695.739563 84.502678,705.790527 84.139206,715.893799 
	C83.788445,725.644043 91.359985,732.573120 98.727379,731.632568 
	C100.103027,716.383667 101.456680,701.378601 102.966690,685.496704 
z"/>
<path fill="#2E2B50" opacity="1.000000" stroke="none" 
	d="
M751.072571,678.809021 
	C752.021057,672.159058 753.306946,665.535095 753.821228,658.851746 
	C754.314880,652.435730 753.993347,645.958069 754.071289,639.507935 
	C754.082581,638.569336 754.323120,637.633484 754.570068,635.912964 
	C759.346252,637.358582 763.802917,638.707520 768.629761,640.028198 
	C769.000000,651.687561 769.000000,663.375122 769.000000,675.531372 
	C767.993469,680.352112 766.622192,684.656677 766.047302,689.065125 
	C764.162720,703.516602 761.604797,717.958435 764.339417,732.730713 
	C751.555237,730.107727 747.242004,724.970703 747.891113,712.717712 
	C748.319397,704.631775 749.394409,696.580078 750.205750,688.246826 
	C748.854004,688.546143 747.902283,688.756897 746.184814,688.632080 
	C737.101807,688.209595 728.784546,688.084534 720.467468,688.097046 
	C719.675049,688.098267 718.883911,688.960022 718.092163,689.422241 
	C717.370300,693.016357 716.648438,696.610474 715.412048,700.678711 
	C711.132812,703.697144 710.964111,706.288330 714.122559,713.053894 
	C714.094788,715.419678 714.067017,717.785522 713.712463,720.823242 
	C713.539978,722.988464 713.694336,724.481812 713.848633,725.975159 
	C713.848633,725.975159 714.005981,726.404419 714.096436,726.859497 
	C714.324890,727.618225 714.545532,727.839417 714.848816,727.978027 
	C714.904480,728.147095 714.960144,728.316101 714.600586,728.750732 
	C708.165222,729.997314 701.525330,724.505737 701.109497,717.753235 
	C700.878967,714.010132 701.608154,710.218140 701.667542,706.444397 
	C701.738770,701.914551 701.557312,697.380798 701.485352,692.848694 
	C699.773438,692.491699 698.061584,692.134705 696.117737,691.729370 
	C695.322571,686.708191 696.367371,682.533997 701.526611,679.799011 
	C702.709106,679.172180 703.526550,676.928528 703.642456,675.364563 
	C704.586792,662.623108 705.324463,649.866394 706.168701,636.416870 
	C708.779480,636.815247 712.165833,637.132507 715.453247,637.883179 
	C719.717163,638.856934 722.245056,641.874634 721.970886,646.146790 
	C721.365662,655.577820 720.206482,664.972229 719.419006,674.393738 
	C719.287354,675.969055 717.455078,678.651855 721.710144,679.033813 
	C722.458740,679.202881 722.734558,679.084473 723.010315,678.966064 
	C729.363892,678.887451 735.717468,678.808899 742.619507,679.015747 
	C743.448730,679.190063 743.729492,679.078979 744.010254,678.967896 
	C744.450928,678.892700 744.891663,678.817444 745.883240,679.138184 
	C747.980286,679.292358 749.526428,679.050659 751.072571,678.809021 
z"/>
<path fill="#2D2B4F" opacity="1.000000" stroke="none" 
	d="
M1.000000,640.375000 
	C15.544779,634.817932 19.329741,636.759583 22.481995,651.867554 
	C26.620981,671.704651 30.426397,691.611389 34.667614,712.959717 
	C45.590115,687.326538 55.135494,662.550598 60.858616,635.699097 
	C63.478634,636.506348 66.345573,637.122742 68.984306,638.265869 
	C72.873863,639.950867 74.565186,643.110657 73.083366,647.215271 
	C69.814888,656.268982 66.632195,665.375000 62.842758,674.214661 
	C55.179863,692.089966 47.239841,709.849915 39.079983,727.502991 
	C38.317169,729.153198 35.279613,730.234375 33.115276,730.669250 
	C24.626640,732.374939 23.584114,731.582214 21.718832,723.117310 
	C17.107279,702.189453 12.684630,681.217957 7.820879,660.349060 
	C6.439531,654.422180 3.803074,648.787842 1.371105,643.009644 
	C1.000000,642.250000 1.000000,641.500000 1.000000,640.375000 
z"/>
<path fill="#F77629" opacity="1.000000" stroke="none" 
	d="
M337.036621,511.895142 
	C334.727142,497.192902 332.472046,482.921539 330.216919,468.650177 
	C329.782196,468.522125 329.347443,468.394104 328.912720,468.266083 
	C326.064423,474.437561 323.070221,480.546570 320.395416,486.792328 
	C312.668091,504.835815 305.114166,522.953613 297.335266,540.974548 
	C296.711914,542.418640 295.009003,544.167175 293.599457,544.377380 
	C283.916595,545.821594 274.198425,547.118042 264.449768,547.998352 
	C258.888702,548.500610 256.131409,545.032837 255.000031,539.780090 
	C250.095963,517.011536 245.044144,494.274841 240.099838,471.514893 
	C233.918427,443.060242 228.284317,414.475128 221.473511,386.172668 
	C216.502029,365.513580 210.224457,345.155518 204.069214,324.802368 
	C202.171890,318.528656 198.759827,312.713013 195.871628,306.311401 
	C207.611496,300.065552 219.759811,296.413513 233.191284,299.308624 
	C238.725464,300.501495 242.647797,304.254333 244.407761,309.133850 
	C248.679306,320.976868 253.243561,332.881073 255.773361,345.155579 
	C264.974182,389.797546 273.396606,434.599976 282.089264,479.346436 
	C283.277618,485.463654 284.334106,491.606476 285.451630,497.737457 
	C285.901917,497.769775 286.352203,497.802124 286.802521,497.834442 
	C288.484924,494.304474 290.372589,490.856201 291.816406,487.231201 
	C301.050568,464.047211 310.424774,440.912933 319.143066,417.534882 
	C320.765625,413.183899 320.567291,407.605835 319.598602,402.927643 
	C314.306305,377.369293 308.729065,351.863708 302.741730,326.459747 
	C301.160583,319.751099 297.780640,313.466400 294.944977,306.272339 
	C307.726257,299.978119 320.779449,295.317291 335.273895,300.471649 
	C340.539948,302.344299 342.843536,307.237640 344.856171,312.070740 
	C346.095947,315.047913 347.195740,318.083435 348.358398,321.092773 
	C348.995941,321.082153 349.633514,321.071533 350.271057,321.060944 
	C351.972260,312.272491 353.673462,303.484039 355.541229,293.835022 
	C366.969025,296.156281 378.612854,297.957794 386.902954,307.621735 
	C390.434357,311.738403 390.877136,316.989777 389.336212,321.861267 
	C384.777313,336.274017 380.036652,350.643646 374.818024,364.828186 
	C371.432892,374.029083 367.452911,383.060699 363.044586,391.818390 
	C360.039398,397.788666 361.360413,403.560394 362.145905,409.395935 
	C365.963654,437.758423 369.967163,466.095947 373.934998,494.438080 
	C374.085663,495.514282 374.546692,496.547058 375.333130,499.164490 
	C379.536743,489.681061 383.512360,481.674225 386.693512,473.363281 
	C398.406769,442.761505 409.584229,411.951660 421.585419,381.464966 
	C424.834412,373.211548 421.869080,366.049774 420.367340,358.627167 
	C416.769897,340.845856 412.315857,323.257721 403.915833,306.479492 
	C415.747253,300.605896 427.608582,296.484344 440.924316,299.207886 
	C447.728851,300.599670 452.010345,305.151672 453.735016,311.279968 
	C457.556915,324.860260 461.674774,338.498444 463.759186,352.399841 
	C469.903259,393.376617 475.119110,434.492615 480.690887,475.555115 
	C481.670258,482.773102 482.614227,489.995911 484.512329,497.375153 
	C509.288818,430.400787 536.510864,364.394470 552.442505,293.947327 
	C562.243591,295.892822 572.175354,298.329102 580.290283,305.306335 
	C585.857727,310.093201 586.268616,316.451416 584.032776,322.740448 
	C576.627686,343.569031 569.744019,364.645416 561.072388,384.948517 
	C541.998779,429.605347 521.939697,473.841034 502.319336,518.264709 
	C499.090881,525.574463 496.202698,533.038696 492.811066,540.269104 
	C491.956482,542.090881 489.923676,544.326233 488.161530,544.594849 
	C478.651489,546.044495 469.071136,547.104980 459.483856,547.943298 
	C454.983521,548.336731 452.747894,545.842957 451.981049,541.185669 
	C446.060211,505.226959 439.939728,469.301056 433.864807,433.367767 
	C433.602478,431.816284 433.180725,430.291779 432.554962,427.523560 
	C427.773010,438.013000 423.349457,447.297821 419.274658,456.733276 
	C407.203400,484.685181 395.308868,512.713501 383.185181,540.642456 
	C382.458893,542.315674 380.470795,544.332092 378.832825,544.572144 
	C369.153198,545.991150 359.418243,547.103577 349.669586,547.944763 
	C345.992462,548.262085 343.629120,546.385010 342.916382,542.218018 
	C341.205383,532.214539 339.060669,522.285278 337.036621,511.895142 
z"/>
<path fill="#2B2950" opacity="1.000000" stroke="none" 
	d="
M573.983215,186.145142 
	C578.683044,190.489395 583.510010,194.704971 588.060608,199.200302 
	C607.319031,218.225021 626.495300,237.332932 645.432129,256.904236 
	C643.531250,257.600708 641.899963,257.980560 640.268616,257.980835 
	C473.871674,258.009003 307.474701,258.012695 141.077774,257.962494 
	C138.988419,257.961853 136.899277,257.249786 134.810043,256.869812 
	C156.371002,235.372864 177.930664,213.874603 199.495346,192.381378 
	C201.263733,190.618851 203.066223,188.890533 205.656494,187.064697 
	C327.223785,186.988785 447.987396,186.998062 568.751038,186.964615 
	C570.495178,186.964142 572.239136,186.430145 573.983215,186.145142 
z"/>
<path fill="#2B2950" opacity="1.000000" stroke="none" 
	d="
M488.956726,100.080536 
	C498.148865,109.150055 507.380951,118.179543 516.522705,127.299583 
	C527.100403,137.852173 537.598572,148.484451 547.765869,159.467194 
	C547.068176,159.876419 546.736023,159.921646 546.403809,159.921722 
	C443.651367,159.944809 340.898926,159.971252 238.146515,159.918045 
	C236.728256,159.917313 235.310532,158.912750 233.892548,158.376694 
	C239.839722,152.209534 245.719711,145.975830 251.747833,139.888840 
	C264.910950,126.597176 278.149353,113.380074 291.979492,100.382156 
	C294.082703,100.754478 295.563354,100.983994 297.044098,100.984413 
	C359.447784,101.002037 421.851501,101.005913 484.255157,100.960510 
	C485.822540,100.959373 487.389557,100.386665 488.956726,100.080536 
z"/>
<path fill="#2C2950" opacity="1.000000" stroke="none" 
	d="
M319.893707,72.401581 
	C333.120453,59.069038 346.344391,45.733700 359.574860,32.404854 
	C369.766296,22.137602 379.965973,11.878510 390.522369,1.253023 
	C414.192108,24.990259 437.562775,48.427551 460.803467,72.557083 
	C459.240479,73.499161 457.807678,73.966133 456.374481,73.967300 
	C412.474365,74.003014 368.574219,74.009697 324.674225,73.923149 
	C323.079712,73.920006 321.487183,72.931084 319.893707,72.401581 
z"/>
<path fill="#2D2B4F" opacity="1.000000" stroke="none" 
	d="
M271.523987,652.446167 
	C271.890198,651.463806 272.037231,650.796387 272.347778,650.216675 
	C274.789185,645.658813 276.136749,641.225281 270.575531,637.586304 
	C282.843903,633.199036 290.705963,636.600281 293.713257,648.370056 
	C298.232025,666.055359 301.688873,684.010132 306.085297,701.729187 
	C308.270020,710.534607 311.541046,719.070435 314.504517,728.300903 
	C313.500763,728.689453 311.569153,729.533630 309.576050,730.191467 
	C302.061066,732.671692 297.554260,730.579712 295.394226,723.054138 
	C293.194885,715.391296 291.516510,707.578918 289.805389,700.625854 
	C280.231781,701.253357 270.837341,701.869080 260.859100,702.523071 
	C257.395386,712.414917 253.849030,722.542847 250.070190,733.334717 
	C246.297394,731.061218 242.808823,728.958984 238.991928,726.658936 
	C232.645233,733.859070 224.128815,729.963562 216.045593,729.788330 
	C204.812027,729.544678 193.569214,729.727051 181.822098,729.727051 
	C182.752563,728.063660 183.640488,725.389709 185.411713,723.580566 
	C187.708450,721.234558 188.013596,718.870117 188.215164,715.741272 
	C188.845016,705.963562 190.263596,696.239624 191.218903,686.479370 
	C192.820023,670.120605 194.299561,653.750000 195.860626,637.059692 
	C206.020416,635.197632 211.908829,639.443115 211.030731,650.563232 
	C209.867538,665.293579 207.439407,679.921570 205.680954,694.608643 
	C204.812698,701.860352 204.227264,709.145996 203.462769,716.937012 
	C216.774948,717.306641 229.460159,716.621460 241.909790,713.364197 
	C242.962906,713.088745 244.055328,711.820923 244.556152,710.746765 
	C253.550262,691.456299 262.455902,672.124634 271.523987,652.446167 
M265.436310,692.605713 
	C265.906128,693.259033 266.364777,694.471375 266.847504,694.481018 
	C273.166138,694.607788 279.494446,694.697510 285.801727,694.400757 
	C286.618378,694.362366 288.174286,691.931030 287.960876,690.904785 
	C285.809387,680.558838 283.360077,670.274780 280.994446,659.973267 
	C280.646851,659.914062 280.299225,659.854858 279.951599,659.795654 
	C275.182648,670.492371 270.413696,681.189087 265.436310,692.605713 
z"/>
<path fill="#2D2B4F" opacity="1.000000" stroke="none" 
	d="
M422.910980,655.191040 
	C425.424286,674.031372 427.862396,692.448242 430.300507,710.865051 
	C430.724304,710.941772 431.148102,711.018494 431.571899,711.095215 
	C434.528290,703.002136 437.525909,694.923889 440.429749,686.812012 
	C443.452393,678.368164 446.577728,669.953613 449.301270,661.412476 
	C451.963715,653.062744 454.175812,644.569458 456.651337,635.909363 
	C457.788330,636.185303 459.065399,636.424805 460.298645,636.805908 
	C468.705231,639.403931 470.469604,642.213562 467.160217,650.383423 
	C459.359894,669.640076 451.136780,688.726074 443.027222,707.856750 
	C440.301178,714.287598 437.528320,720.704895 434.543335,727.017944 
	C431.840179,732.734924 426.281036,730.537537 421.826019,731.040039 
	C417.872772,731.486023 418.605865,727.775330 418.226135,725.692566 
	C415.912811,713.003662 413.853851,700.268433 411.455963,686.041077 
	C407.388092,695.080261 403.853851,702.834473 400.407654,710.627625 
	C398.255554,715.494263 396.226654,720.415649 394.160431,725.320068 
	C392.263000,729.823608 383.493317,733.230896 379.239075,730.820007 
	C378.255676,730.262756 377.759491,728.387390 377.526215,727.034607 
	C374.616730,710.162415 372.013245,693.234558 368.881622,676.404602 
	C366.641266,664.364502 363.723938,652.450317 360.979187,639.887329 
	C361.893005,639.552124 363.830383,638.623413 365.872925,638.130249 
	C374.238403,636.110718 378.093933,638.010742 379.720764,646.356567 
	C381.681915,656.417480 382.538269,666.689148 384.057556,676.841980 
	C385.447235,686.128723 387.085083,695.378296 388.608765,704.645020 
	C388.972015,706.854370 389.316254,709.066895 389.669281,711.277954 
	C390.091919,711.346619 390.514526,711.415283 390.937134,711.483948 
	C395.603394,699.432678 399.803497,687.173218 405.066956,675.388672 
	C410.335999,663.591614 405.057098,653.416260 401.706970,642.800598 
	C401.513916,642.188782 401.156799,641.628784 400.885620,641.064575 
	C410.302002,635.040222 419.575134,635.956543 421.182526,647.479004 
	C421.525513,649.937561 422.274078,652.339478 422.910980,655.191040 
z"/>
<path fill="#2D2B4F" opacity="1.000000" stroke="none" 
	d="
M631.172180,683.463928 
	C630.815002,693.441223 630.641174,702.924561 636.082581,711.417053 
	C641.570740,719.982666 651.041016,723.087708 659.851990,718.269714 
	C664.711365,715.612610 668.691650,711.378235 673.213135,708.051941 
	C674.391113,707.185364 676.112488,707.057373 677.584290,706.590210 
	C677.915039,708.298523 679.102722,710.505432 678.443787,711.637817 
	C671.961182,722.778870 662.493591,729.714111 649.392761,731.064575 
	C627.678040,733.303101 616.043518,718.211182 613.744202,703.185120 
	C611.237976,686.807251 612.531555,670.976868 621.291138,656.412354 
	C628.254761,644.833984 638.549744,637.888794 651.906311,636.476013 
	C657.879150,635.844238 664.403503,636.099792 670.081665,637.867126 
	C683.820435,642.143494 687.811768,661.488647 677.573181,671.585938 
	C673.354309,675.746643 666.483154,676.902222 662.306458,674.554138 
	C663.702637,668.149658 665.823364,661.986877 666.231689,655.712646 
	C666.843872,646.306030 660.257324,642.074402 651.415588,645.614624 
	C643.759094,648.680115 639.381165,655.171204 636.623657,662.361267 
	C634.090149,668.967102 632.942444,676.104309 631.172180,683.463928 
z"/>
<path fill="#2D2B4F" opacity="1.000000" stroke="none" 
	d="
M476.351990,702.280273 
	C484.449585,684.549011 492.343262,667.138916 500.291046,649.753540 
	C502.283173,645.395935 503.507751,641.227234 498.835938,636.767944 
	C501.682739,636.767944 504.551422,636.993652 507.371765,636.720459 
	C513.045471,636.170715 516.905090,637.892700 519.242004,643.018311 
	C520.886108,646.624451 522.286743,650.421814 523.178528,654.276611 
	C526.587402,669.011475 529.462646,683.874390 533.097229,698.550781 
	C535.552551,708.465149 538.946472,718.147095 542.051575,728.364136 
	C540.650818,728.890869 538.250488,730.048523 535.719543,730.695801 
	C529.024780,732.407898 524.859619,729.855225 522.832275,722.490662 
	C520.803345,715.120300 519.198975,707.633118 517.527222,700.689941 
	C509.464142,701.153320 501.434021,701.822876 493.394043,701.976746 
	C490.076233,702.040283 488.293121,702.964600 487.228180,706.182373 
	C484.333069,714.929871 481.165802,723.587219 477.907837,732.844543 
	C475.848328,731.925720 473.572327,731.090393 471.472107,729.935425 
	C467.280396,727.630127 466.222015,724.221985 468.264008,719.837708 
	C470.931396,714.110596 473.536346,708.354370 476.351990,702.280273 
M502.747345,694.640198 
	C507.101471,694.393982 511.455597,694.147827 516.484985,693.863464 
	C513.707458,681.902710 511.160400,670.934631 508.613403,659.966614 
	C508.263062,659.979980 507.912750,659.993347 507.562439,660.006714 
	C502.649078,670.947876 497.735718,681.889038 492.719177,693.059937 
	C496.137604,693.652527 498.984985,694.146118 502.747345,694.640198 
z"/>
<path fill="#2D2B50" opacity="1.000000" stroke="none" 
	d="
M584.308105,676.423035 
	C582.820007,689.076172 581.208374,701.277893 580.143677,713.527222 
	C579.603333,719.744446 580.049194,726.047424 580.049194,732.274048 
	C569.054199,731.671265 562.672363,723.296082 564.307922,711.018127 
	C566.348694,695.697876 568.142151,680.344238 569.973145,664.996826 
	C570.345703,661.873901 570.411011,658.714233 570.640076,655.235168 
	C564.868896,655.235168 559.401917,655.014038 553.961731,655.301086 
	C549.105835,655.557373 547.398804,652.946411 547.037842,648.784851 
	C546.865906,646.802063 546.931946,644.789062 547.020386,642.795471 
	C547.150940,639.851685 548.703491,638.909485 551.651611,639.127930 
	C561.241394,639.838562 570.845093,640.383118 580.449646,640.867554 
	C590.811218,641.390259 600.902893,639.290955 611.018005,637.482971 
	C612.114624,637.286865 613.223755,637.160767 614.514587,636.975342 
	C612.690247,654.279419 599.316040,652.946594 587.360291,654.120850 
	C586.357422,661.557312 585.384094,668.774292 584.308105,676.423035 
z"/>
<path fill="#2D2B50" opacity="1.000000" stroke="none" 
	d="
M167.603241,730.006348 
	C159.181778,729.699158 151.218658,729.281311 143.250488,729.130371 
	C135.315399,728.979919 127.375221,729.097412 118.870682,729.097412 
	C119.557007,727.626892 119.932533,725.199524 121.340202,724.128052 
	C124.772980,721.515076 124.405533,718.221802 124.726807,714.547058 
	C125.854469,701.649231 127.859863,688.827087 128.944519,675.926819 
	C129.987656,663.520203 130.300171,651.052246 130.940933,638.611572 
	C130.973541,637.978638 131.074493,637.349243 131.169907,636.478333 
	C133.492538,636.691406 135.630569,636.737549 137.711823,637.105164 
	C145.583694,638.495361 147.618942,640.467041 146.928207,648.331604 
	C145.389969,665.845947 143.309875,683.312317 141.481155,700.801514 
	C140.933487,706.039185 140.486923,711.287415 139.880981,717.733765 
	C153.711563,716.618103 166.819412,715.560791 179.922516,714.503845 
	C180.565338,722.083984 175.257919,729.243164 167.603241,730.006348 
z"/>
<path fill="#2D2B50" opacity="1.000000" stroke="none" 
	d="
M102.888504,685.935181 
	C101.456680,701.378601 100.103027,716.383667 98.727379,731.632568 
	C91.359985,732.573120 83.788445,725.644043 84.139206,715.893799 
	C84.502678,705.790527 86.192947,695.739563 87.166145,685.652466 
	C88.725449,669.490479 90.171997,653.317688 91.724136,636.522644 
	C93.653778,636.816711 96.891487,637.135010 100.045494,637.831970 
	C104.725403,638.866211 107.427467,641.964844 107.015472,646.761658 
	C106.018181,658.373230 104.677399,669.955383 103.466263,681.548462 
	C103.328453,682.867493 103.134575,684.180786 102.888504,685.935181 
z"/>
<path fill="#010129" opacity="1.000000" stroke="none" 
	d="
M134.458511,257.039429 
	C136.899277,257.249786 138.988419,257.961853 141.077774,257.962494 
	C307.474701,258.012695 473.871674,258.009003 640.268616,257.980835 
	C641.899963,257.980560 643.531250,257.600708 645.534851,257.221100 
	C646.370911,257.454742 646.834717,257.865326 647.984863,258.883514 
	C645.862427,259.049774 644.495911,259.250458 643.129395,259.250580 
	C474.654694,259.267334 306.180023,259.274200 137.705383,259.166321 
	C136.600388,259.165619 133.386124,261.246155 134.458511,257.039429 
z"/>
<path fill="#000007" opacity="1.000000" stroke="none" 
	d="
M573.518555,186.077789 
	C572.239136,186.430145 570.495178,186.964142 568.751038,186.964615 
	C447.987396,186.998062 327.223785,186.988785 205.954071,186.962891 
	C207.161789,186.630432 208.875488,186.045395 210.589401,186.044815 
	C331.410889,186.003540 452.232391,186.008942 573.518555,186.077789 
z"/>
<path fill="#010101" opacity="1.000000" stroke="none" 
	d="
M233.567596,158.544037 
	C235.310532,158.912750 236.728256,159.917313 238.146515,159.918045 
	C340.898926,159.971252 443.651367,159.944809 546.403809,159.921722 
	C546.736023,159.921646 547.068176,159.876419 547.888062,159.781937 
	C548.472473,160.075165 548.569214,160.438721 548.665894,160.802292 
	C547.532715,160.891266 546.399597,161.058029 545.266418,161.058151 
	C441.299164,161.069351 337.331879,161.067978 233.364609,161.061874 
	C232.868942,161.061859 232.373291,160.982544 231.300720,160.891052 
	C232.110199,159.982452 232.676422,159.346909 233.567596,158.544037 
z"/>
<path fill="#03003D" opacity="1.000000" stroke="none" 
	d="
M488.531738,99.875183 
	C487.389557,100.386665 485.822540,100.959373 484.255157,100.960510 
	C421.851501,101.005913 359.447784,101.002037 297.044098,100.984413 
	C295.563354,100.983994 294.082703,100.754478 292.315308,100.330727 
	C293.002411,99.894295 293.976135,99.640564 294.949890,99.640511 
	C359.335510,99.637230 423.721130,99.654427 488.531738,99.875183 
z"/>
<path fill="#020229" opacity="1.000000" stroke="none" 
	d="
M319.594940,72.585793 
	C321.487183,72.931084 323.079712,73.920006 324.674225,73.923149 
	C368.574219,74.009697 412.474365,74.003014 456.374481,73.967300 
	C457.807678,73.966133 459.240479,73.499161 460.893280,72.860687 
	C461.797699,73.080887 462.482300,73.689728 463.772766,74.837387 
	C414.495483,74.837387 366.190216,74.837387 317.094757,74.837387 
	C318.192169,73.806801 318.744171,73.288406 319.594940,72.585793 
z"/>
<path fill="#252444" opacity="1.000000" stroke="none" 
	d="
M701.339844,693.215332 
	C701.557312,697.380798 701.738770,701.914551 701.667542,706.444397 
	C701.608154,710.218140 700.878967,714.010132 701.109497,717.753235 
	C701.525330,724.505737 708.165222,729.997314 714.543213,729.011353 
	C716.442871,732.602661 714.361877,732.599060 711.845581,732.023254 
	C703.043579,730.008850 698.106323,722.355469 699.124268,712.214417 
	C699.748413,705.997009 700.500000,699.792297 701.339844,693.215332 
z"/>
<path fill="#070621" opacity="1.000000" stroke="none" 
	d="
M718.531982,689.484985 
	C718.883911,688.960022 719.675049,688.098267 720.467468,688.097046 
	C728.784546,688.084534 737.101807,688.209595 745.699219,688.607422 
	C736.976868,689.128113 727.974365,689.337891 718.531982,689.484985 
z"/>
<path fill="#252444" opacity="1.000000" stroke="none" 
	d="
M714.469910,712.844360 
	C710.964111,706.288330 711.132812,703.697144 715.250488,701.082520 
	C715.341431,704.886353 715.079407,708.760559 714.469910,712.844360 
z"/>
<path fill="#1B173B" opacity="1.000000" stroke="none" 
	d="
M750.650330,678.739502 
	C749.526428,679.050659 747.980286,679.292358 746.206909,679.242126 
	C747.395813,678.856750 748.811951,678.763306 750.650330,678.739502 
z"/>
<path fill="#252444" opacity="1.000000" stroke="none" 
	d="
M713.919556,725.567017 
	C713.694336,724.481812 713.539978,722.988464 713.635437,721.260986 
	C713.920227,722.404175 713.955322,723.781555 713.919556,725.567017 
z"/>
<path fill="#1B173B" opacity="1.000000" stroke="none" 
	d="
M743.754578,678.886353 
	C743.729492,679.078979 743.448730,679.190063 743.075500,679.126953 
	C743.154968,678.903442 743.326965,678.854126 743.754578,678.886353 
z"/>
<path fill="#252444" opacity="1.000000" stroke="none" 
	d="
M714.878906,727.711548 
	C714.545532,727.839417 714.324890,727.618225 714.113892,727.087463 
	C714.330261,727.055237 714.619629,727.250183 714.878906,727.711548 
z"/>
<path fill="#1B173B" opacity="1.000000" stroke="none" 
	d="
M722.754578,678.888367 
	C722.734558,679.084473 722.458740,679.202881 722.087280,679.150513 
	C722.160706,678.923279 722.329773,678.867004 722.754578,678.888367 
z"/>
<path fill="#EFEFF1" opacity="1.000000" stroke="none" 
	d="
M265.540527,692.245789 
	C270.413696,681.189087 275.182648,670.492371 279.951599,659.795654 
	C280.299225,659.854858 280.646851,659.914062 280.994446,659.973267 
	C283.360077,670.274780 285.809387,680.558838 287.960876,690.904785 
	C288.174286,691.931030 286.618378,694.362366 285.801727,694.400757 
	C279.494446,694.697510 273.166138,694.607788 266.847504,694.481018 
	C266.364777,694.471375 265.906128,693.259033 265.540527,692.245789 
z"/>
<path fill="#F0F0F1" opacity="1.000000" stroke="none" 
	d="
M502.289856,694.639954 
	C498.984985,694.146118 496.137604,693.652527 492.719177,693.059937 
	C497.735718,681.889038 502.649078,670.947876 507.562439,660.006714 
	C507.912750,659.993347 508.263062,659.979980 508.613403,659.966614 
	C511.160400,670.934631 513.707458,681.902710 516.484985,693.863464 
	C511.455597,694.147827 507.101471,694.393982 502.289856,694.639954 
z"/>
</svg>